<?xml version="1.0" encoding="utf-8"?>
<!-- Uploaded to: SVG Repo, www.svgrepo.com, Generator: SVG Repo Mixer Tools -->
<svg width="800px" height="800px" viewBox="0 -0.68 40.699 40.699" xmlns="http://www.w3.org/2000/svg">
  <g id="Group_61" data-name="Group 61" transform="translate(-139.65 -130.651)">
    <path id="Path_8_" d="M143,153v15a.945.945,0,0,0,1,1h15V151" fill="none" stroke="#444" stroke-linecap="square" stroke-width="2"/>
    <path id="Path_9_" d="M177,144v24a1,1,0,0,1-1,1H159V134" fill="none" stroke="#444" stroke-linecap="square" stroke-width="2"/>
    <path id="Rectangle" d="M149,157h4a.945.945,0,0,1,1,1v4a.945.945,0,0,1-1,1h-4a.945.945,0,0,1-1-1v-4A.945.945,0,0,1,149,157Z" fill="none" stroke="#444" stroke-linecap="square" stroke-width="2"/>
    <path id="Path_10_" d="M156,132l23,12" fill="none" stroke="#444" stroke-linecap="round" stroke-linejoin="round" stroke-width="2"/>
    <path id="Path_11_" d="M158.2,144,141,153" fill="none" stroke="#444" stroke-linecap="round" stroke-linejoin="round" stroke-width="2"/>
    <path id="Stroke-3_1_" d="M170,157h-4a.945.945,0,0,0-1,1v11h6V158a1,1,0,0,0-1-1Z" fill="none" stroke="#444" stroke-linecap="square" stroke-width="2"/>
    <path id="Stroke-4" d="M171,148a3,3,0,1,1-3-3,2.946,2.946,0,0,1,3,3Z" fill="none" stroke="#444" stroke-linecap="square" stroke-width="2"/>
    <path id="Stroke-5" d="M170,138v-5a.945.945,0,0,1,1-1h3a.945.945,0,0,1,1,1v8" fill="none" stroke="#444" stroke-linecap="round" stroke-linejoin="round" stroke-width="2"/>
    <path id="Path-172" d="M141,169h38" fill="none" stroke="#444" stroke-linecap="round" stroke-linejoin="round" stroke-width="2"/>
  </g>
</svg>