<?xml version="1.0" encoding="iso-8859-1"?>
<!-- Uploaded to: SVG Repo, www.svgrepo.com, Generator: SVG Repo Mixer Tools -->
<svg fill="#000000" height="800px" width="800px" version="1.1" id="Layer_1" xmlns="http://www.w3.org/2000/svg" xmlns:xlink="http://www.w3.org/1999/xlink" 
	 viewBox="0 0 512.001 512.001" xml:space="preserve">
<g>
	<g>
		<path d="M461.913,0.001H50.087C22.469,0.001,0,22.47,0,50.088c0,14.456,0,397.424,0,411.826c0,27.618,22.469,50.087,50.087,50.087
			h289.391c9.22,0,16.696-7.475,16.696-16.696s-7.475-16.696-16.696-16.696h-27.826v-128c0-9.22-7.475-16.696-16.696-16.696
			s-16.696,7.475-16.696,16.696v128H244.87v-61.217c0-46.03-37.448-83.478-83.478-83.478h-128v-50.087h261.565
			c9.22,0,16.696-7.475,16.696-16.696s-7.475-16.696-16.696-16.696H33.391v-50.087h50.087c6.798,0,12.636-4.069,15.241-9.901
			c10.394,6.437,22.389,9.901,34.846,9.901c36.824,0,66.783-29.959,66.783-66.783c0-36.824-29.959-66.783-66.783-66.783
			c-12.457,0-24.452,3.464-34.846,9.901c-2.605-5.831-8.442-9.901-15.241-9.901H33.391V50.088c0-9.206,7.49-16.696,16.696-16.696
			H244.87v150.261c0,9.22,7.475,16.696,16.696,16.696c9.22,0,16.696-7.475,16.696-16.696V33.392h33.391v109.566
			c0,31.645,25.746,57.391,57.392,57.391h85.565c8.566,0,16.692-1.9,24.001-5.279v55.366h-83.478
			c-9.22,0-16.696,7.475-16.696,16.696s7.475,16.696,16.696,16.696h83.478v178.087c0,9.206-7.49,16.696-16.696,16.696h-22.261
			c-9.22,0-16.696,7.475-16.696,16.696s7.475,16.696,16.696,16.696h22.261c27.618,0,50.087-22.469,50.087-50.087V50.088
			C512,22.47,489.531,0.001,461.913,0.001z M161.391,367.305c27.618,0,50.087,22.469,50.087,50.087v61.217H50.087
			c-9.206,0-16.696-7.49-16.696-16.696v-27.826h50.087c9.22,0,16.696-7.475,16.696-16.696s-7.475-16.696-16.696-16.696H33.391
			v-33.391H161.391z M100.174,117.936c3.763-2.602,7.331-5.487,10.653-8.652c6.167-5.876,14.242-9.11,22.738-9.11
			c18.412,0,33.391,14.979,33.391,33.391c0,18.412-14.979,33.391-33.391,33.391c-8.498,0-16.575-3.237-22.744-9.114
			c-3.317-3.16-6.882-6.043-10.647-8.645V117.936z M66.783,100.174c0,8.174,0,59.656,0,66.783H33.391v-66.783H66.783z
			 M345.043,33.392h50.087v33.391h-50.087V33.392z M478.609,142.958c0,13.233-10.766,23.999-23.999,23.999h-85.565
			c-13.234,0-24.001-10.766-24.001-24.001v-42.782h133.565V142.958z M478.609,66.783h-50.087V33.392h33.391
			c9.206,0,16.696,7.49,16.696,16.696V66.783z"/>
	</g>
</g>
<g>
	<g>
		<circle cx="161.391" cy="417.392" r="16.696"/>
	</g>
</g>
</svg>