<?xml version="1.0" encoding="iso-8859-1"?>
<!-- Uploaded to: SVG Repo, www.svgrepo.com, Generator: SVG Repo Mixer Tools -->
<svg fill="#000000" version="1.1" id="Capa_1" xmlns="http://www.w3.org/2000/svg" xmlns:xlink="http://www.w3.org/1999/xlink" 
	 viewBox="0 0 60 60" xml:space="preserve">
<g>
	<g>
		<rect x="50" y="34" width="2" height="26"/>
		<path d="M6,46V24.1C6,12.1,16.1,2,28,2V0C15,0,4,11,4,24.1V47c0,0.6,0.4,1,1,1h21v12h2V48h4v-2h-5H6z"/>
		<path d="M12,29v7c0,0.6,0.4,1,1,1h5v-2h-4v-6H12z"/>
		<path d="M43.9,9.7C43.8,9.3,43.4,9,43,9s-0.8,0.3-0.9,0.7l-2.9,8.7C39.1,18.6,39,18.8,39,19v33v8h2v-7h1h2h1v7h2v-8V19
			c0-0.2-0.1-0.5-0.2-0.6L43.9,9.7z M43,13.2l1.6,4.8h-3.2L43,13.2z M41,51V20h1v31H41z M44,51V20h1v31H44z"/>
		<rect x="42" y="3" width="2" height="2"/>
		<rect x="46" y="3" width="2" height="2"/>
		<rect x="50" y="3" width="2" height="2"/>
		<rect x="34" y="3" width="2" height="2"/>
		<rect x="38" y="3" width="2" height="2"/>
		<rect x="54" y="7" width="2" height="2"/>
		<rect x="54" y="11" width="2" height="2"/>
		<rect x="54" y="15" width="2" height="2"/>
		<rect x="54" y="19" width="2" height="2"/>
		<rect x="54" y="23" width="2" height="2"/>
		<rect x="30" y="7" width="2" height="2"/>
		<rect x="30" y="11" width="2" height="2"/>
		<rect x="30" y="15" width="2" height="2"/>
		<rect x="30" y="19" width="2" height="2"/>
		<rect x="30" y="23" width="2" height="2"/>
		<rect x="34" y="23" width="2" height="2"/>
		<rect x="50" y="23" width="2" height="2"/>
	</g>
</g>
</svg>